/* XPM */
static char *smw[] = {
/* columns rows colors chars-per-pixel */
"32 32 24 1 ",
"  c black",
". c #282828282828",
"X c #A0A000000000",
"o c #C8C800001818",
"O c #F8F820203838",
"+ c #A8A850500000",
"@ c #E8E860605050",
"# c #E0E080803030",
"$ c #F0F0C8C83030",
"% c #F0F090905858",
"& c #282848488080",
"* c #38387070A8A8",
"= c #48489898D0D0",
"- c #5050A0A0E0E0",
"; c #6868B8B8E8E8",
": c #5858C8C8F8F8",
"> c #F8F8B8B88080",
", c #F8F8C8C88080",
"< c #9090C0C0F8F8",
"1 c #8080D0D0F0F0",
"2 c #9898E8E8F8F8",
"3 c #A0A0E8E8F8F8",
"4 c #F8F8F8F8F8F8",
"5 c None",
/* pixels */
"55555555555555555555555555555555",
"5555                        5555",
"555 <<<<<<<<<<<<<<<< 3..44.. 555",
"55 <<<<<<<<<<<<<<<<< 34....3: 55",
"5 <<<<<<<<<<<<<<<<<< 34433:3:: 5",
"5 <<<<<<<<<<<<<<<<<< 343333::: 5",
"5 <<<<<<<<<<<<<<<<<< 34433:3:: 5",
"5 <<<<<<<<<<<.....<<...3333::: 5",
"5 <<<<<<<<<<.XXoOO..@%%.33:3:: 5",
"5 <<<<<<<<<.XXoooooo.@@.333::: 5",
"5 <<<<<<<<<...@@.@...o.433:3:: 5",
"5 <<<<<<<<.%%..%.%%>%o.3333::: 5",
"5 <<<<<<<<.@@..%%.@@@o.433:3:: 5",
"5 <<<<<<<<<..@@%......43333::: 5",
"5 <<<<<<<<<<..@@@@@@o.4433:3:: 5",
"5 <<<<<<<<.oOo&*Xo.o.343333::: 5",
"5 <<<<<<<...XOo&*Xo....433:3:: 5",
"5 <<<<<<.>>@.XX.4==4.$+.333::: 5",
"5 <<<<<<.%%@.X.****.$++.33:3:: 5",
"5 <<<<<<<.+...*&&&&.#+.3333::: 5",
"5 <<<<<<.++#.*&&&...#+.433:3:: 5",
"5 <<<<<<.+#.&&&..<<<..43333::: 5",
"5 <<<<<<<..<...<<<<< 34433:3:: 5",
"5 ;;;;-<<<<<<<<<<<<< 343333::: 5",
"5 222;-<<<<<<<<<<<<< 34433:3:: 5",
"5 222--<<<<<<<<<<<<< 343333::: 5",
"5 122--<<<<<<<<<<<<< 34433:3:: 5",
"5 1----<<<<<<<<<<<<< 343333::: 5",
"55 .......................... 55",
"555 ,,,,,,,,,,,,,,,,,,,,,,,, 555",
"5555                        5555",
"55555555555555555555555555555555"
};
